# xmcd
#
# Track frame offsets: 
#        150
#        21215
#        42330
#
# Disc length: 845 seconds
#
# Revision: 1
# Processed by: cddbd v1.5.2PL0 Copyright (c) Steve Scherf et al.
# Submitted via: ExactAudioCopy v1.0b3
#
DISCID=1d034b03
DTITLE=Celine Dion - BE THE MAN
DYEAR=1900
DGENRE=Rock
TTITLE0=BE THE MAN
TTITLE1=BE THE MAN (Japanese Version)
TTITLE2=BE THE MAN(Karaoke Version)
EXTD=
EXTT0=
EXTT1=
EXTT2=
PLAYORDER=
